<?xml version="1.0" encoding="UTF-8" standalone="no"?>
<svg
   xmlns:dc="http://purl.org/dc/elements/1.1/"
   xmlns:cc="http://creativecommons.org/ns#"
   xmlns:rdf="http://www.w3.org/1999/02/22-rdf-syntax-ns#"
   xmlns:svg="http://www.w3.org/2000/svg"
   xmlns="http://www.w3.org/2000/svg"
   xmlns:sodipodi="http://sodipodi.sourceforge.net/DTD/sodipodi-0.dtd"
   xmlns:inkscape="http://www.inkscape.org/namespaces/inkscape"
   width="480px"
   height="640px"
   viewBox="250 300 595 842"
   version="1.1"
   id="svg5440"
   inkscape:version="0.91 r13725"
   sodipodi:docname="Motorola_C350_green.svg"
   inkscape:export-filename="/home/exl/Downloads/Motorola_C350_green.svg.png"
   inkscape:export-xdpi="26.875731"
   inkscape:export-ydpi="26.875731">
  <metadata
     id="metadata5671">
    <rdf:RDF>
      <cc:Work
         rdf:about="">
        <dc:format>image/svg+xml</dc:format>
        <dc:type
           rdf:resource="http://purl.org/dc/dcmitype/StillImage" />
        <dc:title></dc:title>
      </cc:Work>
    </rdf:RDF>
  </metadata>
  <defs
     id="defs5669" />
  <sodipodi:namedview
     pagecolor="#2b3c3b"
     bordercolor="#666666"
     borderopacity="1"
     objecttolerance="10"
     gridtolerance="10"
     guidetolerance="10"
     inkscape:pageopacity="0"
     inkscape:pageshadow="2"
     inkscape:window-width="1366"
     inkscape:window-height="725"
     id="namedview5667"
     showgrid="false"
     inkscape:zoom="0.5"
     inkscape:cx="-348.30528"
     inkscape:cy="419.41035"
     inkscape:window-x="0"
     inkscape:window-y="22"
     inkscape:window-maximized="1"
     inkscape:current-layer="svg5440" />
  <g
     id="motorola_c350"
     transform="matrix(4.2547833,0,0,4.2547833,-732.00158,-993.73362)">
    <g
       id="g5443"
       style="stroke:#859a65;stroke-opacity:1">
      <path
         style="fill:none;stroke:#859a65;stroke-width:15.46054085;stroke-linecap:butt;stroke-linejoin:miter;stroke-miterlimit:4;stroke-opacity:1;stroke-dasharray:none"
         d="m 2596.4453,5250.4687 c 0,23.9844 2.7344,81.6407 250.586,98.6329 194.6093,13.3203 335.8203,4.7265 453.2421,-16.0157 135.9375,-23.9843 125.2735,-77.3047 125.2735,-77.3047 0,0 10.664,-951.7578 8.0078,-1023.75 -2.6563,-71.9921 -13.3203,-682.4999 -13.3203,-701.1328 0,-18.6718 -5.3516,-34.6875 -24.0235,-48.0078 -18.6328,-13.3203 -85.2734,-42.6562 -85.2734,-42.6562 0,0 -24.0234,18.6719 -45.3516,8.0078 -21.3281,-10.6641 -117.3046,-23.9844 -247.9296,-23.9844 -130.625,0 -266.6016,23.9844 -293.2422,29.2969 -26.6797,5.3516 -42.6563,-10.6641 -42.6563,-10.6641 0,0 -63.9844,34.6485 -74.6484,42.6563 -10.6641,8.0078 -26.6797,18.6719 -26.6797,66.6797 l 0,687.8125 z"
         id="path5445"
         inkscape:connector-curvature="0"
         sodipodi:nodetypes="ccccssccssccsscc"
         transform="matrix(0.1,0,0,-0.1,0,842)" />
    </g>
    <path
       style="fill:none;stroke:#859a65;stroke-width:12.36843268;stroke-linecap:butt;stroke-linejoin:miter;stroke-miterlimit:4;stroke-opacity:1;stroke-dasharray:none"
       d="m 3067.7148,5207.4219 130.2149,0 c 14.2969,0 25.8984,-11.6016 25.8984,-25.8985 0,-14.2578 -11.6015,-25.8593 -25.8984,-25.8593 l -137.7783,0 m -117.9005,0 -124.9462,0 c -14.2969,0 -25.8984,11.6015 -25.8984,25.8593 0,14.2969 11.6015,25.8985 25.8984,25.8985 l 120.4971,0 m -357.2159,-949.5703 c 0,0 31.0938,-62.1875 55,-105.2344 11.5083,-20.7074 24.6678,-46.9367 35.2331,-80.2794 m 16.4962,-77.3337 c 1.4098,-11.9139 2.4134,-24.4381 2.9241,-37.6052 m 0.1031,-72.6819 c -0.1069,-13.9683 -0.2306,-29.2474 -0.3455,-45.4558 m -0.3455,-66.5394 c -0.05,-18.0907 -0.058,-36.6248 0,-55.2134 m 0.4247,-56.4674 c 1.268,-102.3577 5.5035,-194.0452 17.2645,-206.9785 m 724.8828,813.3594 c 0,0 -40.7105,-71.732 -64.6094,-114.8047 -11.7648,-21.2036 -25.2704,-48.1969 -35.954,-82.6886 m -15.2713,-71.1302 c -1.697,-13.3733 -2.8829,-27.5282 -3.4309,-42.5123 m -0.083,-68.7165 c 0.1135,-14.9737 0.2487,-31.5241 0.373,-49.163 m 0.3266,-61.62 c 0.06,-19.4843 0.073,-39.521 0.01,-59.6187 m -0.4764,-60.0656 c -1.3189,-99.7166 -5.5303,-188.4153 -16.8885,-202.618 -0.119,-0.1488 -1.8935,-1.9804 -2.0141,-2.1128"
       id="path5447"
       inkscape:connector-curvature="0"
       sodipodi:nodetypes="csssccssscccccccccccccsccccccccsc"
       transform="matrix(0.1,0,0,-0.1,0,842)" />
    <path
       style="fill:none;stroke:#859a65;stroke-width:6.18421634;stroke-linecap:round;stroke-linejoin:round;stroke-miterlimit:4;stroke-opacity:1;stroke-dasharray:none"
       d="m 2874.2861,4282.4037 c 14.6797,79.4188 64.3717,137.8697 123.4092,137.8697 58.8212,0 108.3652,-58.0232 123.2464,-136.9973 m -0.5465,-102.0388 c -15.5163,-77.5569 -64.5793,-134.206 -122.6999,-134.206 -58.0989,0 -107.1471,56.607 -122.6826,134.1195"
       transform="matrix(0.1,0,0,-0.1,0,842)"
       id="path5449"
       inkscape:connector-curvature="0"
       sodipodi:nodetypes="csccsc" />
    <path
       style="fill:none;stroke:#859a65;stroke-width:15.46054085;stroke-linecap:butt;stroke-linejoin:miter;stroke-miterlimit:4;stroke-opacity:1;stroke-dasharray:none"
       d="m 3305.5859,4627.5781 c 0,-21.1719 -17.1484,-38.2812 -38.2812,-38.2812 l -536.6406,0 c -21.1328,0 -38.2422,17.1093 -38.2422,38.2812 l 0,344.6485 c 0,21.1718 17.1094,38.2812 38.2422,38.2812 l 536.6406,0 c 21.1328,0 38.2812,-17.1094 38.2812,-38.2812 z m 0,0"
       transform="matrix(0.1,0,0,-0.1,0,842)"
       id="path5451"
       inkscape:connector-curvature="0" />
    <path
       style="fill:none;stroke:#859a65;stroke-width:9.27632451;stroke-linecap:butt;stroke-linejoin:miter;stroke-miterlimit:4;stroke-opacity:1;stroke-dasharray:none"
       d="m 3329.5703,4607.9297 c -18.6328,-66.6406 -125.2734,-111.9531 -199.9219,-109.2969 l -266.6015,-2.6562 c -127.9688,13.3203 -194.6485,88.3984 -194.6485,111.9531 l 0,383.9453 c 0,23.5547 18.6719,63.9844 58.6719,61.2891 l 549.1797,-2.6563 c 42.6563,0 53.3203,-35.0781 53.3203,-58.6328 z m 0,0"
       transform="matrix(0.1,0,0,-0.1,0,842)"
       id="path5453"
       inkscape:connector-curvature="0" />
    <path
       style="fill:none;stroke:#859a65;stroke-width:9.27632451;stroke-linecap:butt;stroke-linejoin:miter;stroke-miterlimit:4;stroke-opacity:1;stroke-dasharray:none"
       d="m 2997.6953,4446.0156 c 43.2031,0 82.2656,-23.7109 110.625,-62.0312 18.9453,-0.039 83.4375,-0.3907 87.9688,-2.6563 138.6328,71.9922 162.6172,215.9375 162.6172,215.9375 l 5.3515,671.836 c 0,0 -21.3281,66.6796 -357.2656,66.6796 -335.8984,0 -349.2578,-66.6796 -349.2578,-66.6796 0,0 -18.6328,-495.8594 -5.3125,-666.4844 13.3203,-170.625 143.9453,-213.2813 143.9453,-213.2813 l 94.8437,0 c 27.9297,35.1563 65.3516,56.6797 106.4844,56.6797 z m -307.0703,-87.6562 c 8.0078,-13.3594 33.7891,-67.6563 33.7891,-67.6563 0,0 31.4453,18.2422 127.6953,21.211 7.3047,25 18.0469,47.6953 31.4062,66.9921 -30.664,0.625 -127.6562,1.9141 -192.8906,-20.5468 z m 586.0938,-74.1797 c 0,0 27.8906,48.3203 35.8984,66.9922 -116.1328,24.0234 -177.5,23.9453 -196.7188,21.6797 12.6563,-19.6875 22.6563,-42.5391 29.2969,-67.6172 59.6485,5.5468 131.5235,-21.0547 131.5235,-21.0547 z m 0,0"
       transform="matrix(0.1,0,0,-0.1,0,842)"
       id="path5455"
       inkscape:connector-curvature="0" />
    <path
       style="fill:none;stroke:#859a65;stroke-width:6.75;stroke-linecap:round;stroke-linejoin:round;stroke-miterlimit:4;stroke-opacity:1"
       d="m 2997.6953,4060.2734 c 44.1016,0 82.4219,37.2657 101.7969,91.9532 l -203.5938,0 c 19.4141,-54.6875 57.6954,-91.9532 101.7969,-91.9532 z m 0,346.7578 c -43.4765,0 -81.289,-36.1718 -100.9375,-89.6093 l 201.875,0 c -19.6484,53.4375 -57.4609,89.6093 -100.9375,89.6093 z m 0,0"
       transform="matrix(0.1,0,0,-0.1,0,842)"
       id="path5457"
       inkscape:connector-curvature="0" />
    <path
       style="fill:none;fill-opacity:1;fill-rule:nonzero;stroke:none"
       d="m 290.48828,413.23437 c -7.10156,1.01172 -11.99219,3.11719 -11.99219,5.55469 0,2.63672 5.70703,4.88281 13.75391,5.78125 2.23828,-5.48437 -0.082,-9.41406 -1.76172,-11.33594"
       id="path5459"
       inkscape:connector-curvature="0" />
    <path
       style="fill:none;stroke:#859a65;stroke-width:6.75;stroke-linecap:round;stroke-linejoin:round;stroke-miterlimit:4;stroke-opacity:1"
       d="m 2904.8828,4287.6562 c -71.0156,-10.1171 -119.9219,-31.1718 -119.9219,-55.5468 0,-26.3672 57.0704,-48.8282 137.5391,-57.8125 22.3828,54.8437 -0.8203,94.1406 -17.6172,113.3593 z m 0,0"
       transform="matrix(0.1,0,0,-0.1,0,842)"
       id="path5461"
       inkscape:connector-curvature="0" />
    <path
       style="fill:none;fill-opacity:1;fill-rule:nonzero;stroke:none"
       d="m 321.51172,418.78906 c 0,-2.42578 -4.84766,-4.52344 -11.90235,-5.54297 -1.67578,1.92969 -3.97656,5.84766 -1.7539,11.3125 7.99609,-0.90625 13.65625,-3.14453 13.65625,-5.76953"
       id="path5463"
       inkscape:connector-curvature="0" />
    <path
       style="fill:none;stroke:#859a65;stroke-width:6.75;stroke-linecap:round;stroke-linejoin:round;stroke-miterlimit:4;stroke-opacity:1"
       d="m 3215.1172,4232.1094 c 0,24.2578 -48.4766,45.2343 -119.0234,55.4297 -16.7579,-19.2969 -39.7657,-58.4766 -17.5391,-113.125 79.9609,9.0625 136.5625,31.4453 136.5625,57.6953 z m 0,0"
       transform="matrix(0.1,0,0,-0.1,0,842)"
       id="path5465"
       inkscape:connector-curvature="0" />
    <path
       style="fill:none;fill-opacity:1;fill-rule:nonzero;stroke:none"
       d="m 309.60937,413.24609 c -2.89062,-0.41406 -6.15234,-0.65234 -9.60546,-0.65234 -3.41407,0 -6.64454,0.23047 -9.51563,0.64062 1.67969,1.92188 4,5.85157 1.76172,11.33594 2.40625,0.26563 5.01953,0.41406 7.75391,0.41406 2.77343,0 5.41796,-0.15234 7.85156,-0.42578 -2.22266,-5.46484 0.0781,-9.38281 1.7539,-11.3125"
       id="path5467"
       inkscape:connector-curvature="0" />
    <path
       style="fill:none;stroke:#859a65;stroke-width:6.75;stroke-linecap:round;stroke-linejoin:round;stroke-miterlimit:4;stroke-opacity:1"
       d="m 3096.0938,4287.5391 c -28.9063,4.1406 -61.5235,6.5234 -96.0547,6.5234 -34.1407,0 -66.4453,-2.3047 -95.1563,-6.4063 16.7969,-19.2187 40,-58.5156 17.6172,-113.3593 24.0625,-2.6563 50.1953,-4.1407 77.5391,-4.1407 27.7343,0 54.1797,1.5235 78.5156,4.2579 -22.2266,54.6484 0.7812,93.8281 17.5391,113.125 z m 0,0"
       transform="matrix(0.1,0,0,-0.1,0,842)"
       id="path5469"
       inkscape:connector-curvature="0" />
    <path
       style="fill:none;stroke:#859a65;stroke-width:9.27632451;stroke-linecap:round;stroke-linejoin:round;stroke-miterlimit:4;stroke-opacity:1;stroke-dasharray:none"
       d="m 2649.9609,4659.7656 c 0,0 -1.4843,-193.789 36.7579,-294.2578 21.6023,-56.695 64.5252,-124.0006 102.4317,-189.5414 m 47.6411,-90.5212 c 8.1532,-18.2707 14.7439,-35.8601 19.0678,-52.4374 28.7185,-110.2028 21.6091,-360.4071 19.6102,-416.1286 m 482.5773,1042.8864 c 0,0 2.4218,-193.789 -35.8594,-294.2578 -21.2009,-55.6415 -64.9382,-121.5628 -104.2193,-185.9662 m -51.5193,-92.5334 c -8.8998,-18.8423 -16.0538,-36.9638 -20.6286,-54.0004 -23.2963,-86.9545 -12.574,-356.0265 -9.8309,-416.1617"
       id="path5471"
       inkscape:connector-curvature="0"
       sodipodi:nodetypes="cccccccscccc"
       transform="matrix(0.1,0,0,-0.1,0,842)" />
    <path
       style="fill:none;fill-opacity:1;fill-rule:nonzero;stroke:none"
       d="m 313.89453,445.71484 c 6.73047,-0.38281 16.82813,-2.4414 19.13281,-4.36328 2.3086,-1.92578 2.3086,-3.65625 1.92578,-4.80859 -0.38671,-1.15625 -2.11718,-2.5 -5.38671,-1.15625 -3.26954,1.34765 -11.85157,2.78125 -14.73829,2.78125 l -0.93359,7.54687"
       id="path5473"
       inkscape:connector-curvature="0" />
    <path
       style="fill:none;stroke:#859a65;stroke-width:6.75;stroke-linecap:round;stroke-linejoin:round;stroke-miterlimit:4;stroke-opacity:1"
       d="m 3138.9453,3962.8516 c 67.3047,3.8281 168.2813,24.414 191.3281,43.6328 23.086,19.2578 23.086,36.5625 19.2579,48.0859 -3.8672,11.5625 -21.1719,25 -53.8672,11.5625 -32.6953,-13.4765 -118.5157,-27.8125 -147.3828,-27.8125 z m 0,0"
       transform="matrix(0.1,0,0,-0.1,0,842)"
       id="path5475"
       inkscape:connector-curvature="0" />
    <path
       style="fill:none;fill-opacity:1;fill-rule:nonzero;stroke:none"
       d="m 285.36328,438.07812 c 0,0 -8.10547,-0.1914 -14.07031,-2.49609 -3.07813,-0.96484 -5.19141,-1.73437 -5.96094,1.15234 -0.74609,2.79297 0.96094,4.61719 3.07813,5.57813 3.60937,1.64062 14.80078,3.13281 18.26171,3.32812 l -1.30859,-7.5625"
       id="path5477"
       inkscape:connector-curvature="0" />
    <path
       style="fill:none;stroke:#859a65;stroke-width:6.75;stroke-linecap:round;stroke-linejoin:round;stroke-miterlimit:4;stroke-opacity:1"
       d="m 2853.6328,4039.2188 c 0,0 -81.0547,1.914 -140.7031,24.9609 -30.7813,9.6484 -51.9141,17.3437 -59.6094,-11.5234 -7.4609,-27.9297 9.6094,-46.1719 30.7813,-55.7813 36.0937,-16.4062 148.0078,-31.3281 182.6172,-33.2812 z m 0,0"
       transform="matrix(0.1,0,0,-0.1,0,842)"
       id="path5479"
       inkscape:connector-curvature="0" />
    <path
       style="fill:none;stroke:#859a65;stroke-width:6.75;stroke-linecap:round;stroke-linejoin:round;stroke-miterlimit:4;stroke-opacity:1"
       d="m 3115.7422,3962.8906 c 2.4219,28.6719 5.7031,53.125 10.2734,70.1172 0.3907,1.3672 0.8203,2.7735 1.25,4.1797 -44.4531,-0.3906 -186.3281,-2.3828 -246.4843,-0.078 0.3906,-1.3672 1.5625,-5.5078 1.2109,-4.1016 -0.5078,1.9141 10.2734,-69.8437 10.2734,-69.8437 55.4688,-1.1719 158.2813,-1.836 223.4766,-0.2735 z m 0,0"
       transform="matrix(0.1,0,0,-0.1,0,842)"
       id="path5481"
       inkscape:connector-curvature="0" />
    <path
       style="fill:none;fill-opacity:1;fill-rule:nonzero;stroke:none"
       d="m 313.23437,457 c 6.58204,-0.37109 16.8125,-2.48828 19.07032,-4.34766 2.2539,-1.85156 2.2539,-3.52343 1.8789,-4.63672 -0.26704,-0.79278 -1.20362,-1.67866 -2.87461,-1.6547 -0.67554,0.01 -1.47112,0.16807 -2.39101,0.54142 -3.19922,1.30078 -12.69141,2.78516 -15.51172,2.78516 L 313.23437,457"
       id="path5483"
       inkscape:connector-curvature="0"
       sodipodi:nodetypes="ccssccc" />
    <path
       style="fill:none;stroke:#859a65;stroke-width:6.75;stroke-linecap:round;stroke-linejoin:round;stroke-miterlimit:4;stroke-opacity:1"
       d="m 3132.3438,3850 c 65.8203,3.7109 168.125,24.8828 190.7031,43.4766 22.539,18.5156 22.539,35.2343 18.789,46.3672 -3.75,11.1328 -20.7031,24.1015 -52.6562,11.1328 -31.9922,-13.0078 -126.9141,-27.8516 -155.1172,-27.8516 z m 0,0"
       transform="matrix(0.1,0,0,-0.1,0,842)"
       id="path5485"
       inkscape:connector-curvature="0" />
    <path
       style="fill:none;fill-opacity:1;fill-rule:nonzero;stroke:none"
       d="m 287.11328,449.5 c 0,0 -9.35156,-0.18359 -15.18359,-2.41016 -3.00782,-0.92968 -5.07813,-1.67187 -5.82813,1.11328 -0.73047,2.69532 0.9375,4.44922 3.00781,5.37891 3.53125,1.58203 14.99219,2.96875 18.37891,3.15234 l -0.375,-7.23437"
       id="path5487"
       inkscape:connector-curvature="0" />
    <path
       style="fill:none;stroke:#859a65;stroke-width:6.75;stroke-linecap:round;stroke-linejoin:round;stroke-miterlimit:4;stroke-opacity:1"
       d="m 2871.1328,3925 c 0,0 -93.5156,1.8359 -151.8359,24.1016 -30.0781,9.2968 -50.7813,16.7187 -58.2813,-11.1328 -7.3047,-26.9532 9.375,-44.4922 30.0782,-53.7891 35.3125,-15.8203 149.9218,-29.6875 183.789,-31.5234 z m 0,0"
       transform="matrix(0.1,0,0,-0.1,0,842)"
       id="path5489"
       inkscape:connector-curvature="0" />
    <path
       style="fill:none;stroke:#859a65;stroke-width:6.75;stroke-linecap:round;stroke-linejoin:round;stroke-miterlimit:4;stroke-opacity:1"
       d="m 2894.9609,3922.6172 c 1.1329,-22.5391 1.9141,-46.6016 2.3438,-71.0156 54.1016,-1.0547 150.5469,-1.6797 213.3984,-0.2735 0.4297,24.6485 1.211,48.9063 2.3828,71.6407 -49.1796,-0.5079 -159.4921,-1.875 -218.125,-0.3516 z m 2.8516,-116.0547 c 0.1172,-23.3203 0,-46.4453 -0.2344,-68.3594 53.086,-1.0547 150.7422,-1.6797 212.8516,-0.2343 -0.2344,22.0703 -0.3516,45.3906 -0.2344,68.9453 -48.0859,-0.5078 -155.1172,-1.7578 -212.3828,-0.3516 z m 0,0"
       transform="matrix(0.1,0,0,-0.1,0,842)"
       id="path5491"
       inkscape:connector-curvature="0" />
    <path
       style="fill:none;fill-opacity:1;fill-rule:nonzero;stroke:none"
       d="m 287.60547,461.35547 c 0,0 -9.33985,-0.42188 -15.03516,-2.56641 -2.9414,-0.89062 -4.96484,-1.60547 -5.69922,1.07422 -0.71484,2.59375 0.91797,4.28906 2.94141,5.18359 3.44922,1.52344 14.5625,3.05469 17.87109,3.23438 l -0.0781,-6.92578"
       id="path5493"
       inkscape:connector-curvature="0" />
    <path
       style="fill:none;stroke:#859a65;stroke-width:6.75;stroke-linecap:round;stroke-linejoin:round;stroke-miterlimit:4;stroke-opacity:1"
       d="m 2876.0547,3806.4453 c 0,0 -93.3984,4.2188 -150.3516,25.6641 -29.414,8.9062 -49.6484,16.0547 -56.9922,-10.7422 -7.1484,-25.9375 9.1797,-42.8906 29.4141,-51.8359 34.4922,-15.2344 145.625,-30.5469 178.7109,-32.3438 z m 0,0"
       transform="matrix(0.1,0,0,-0.1,0,842)"
       id="path5495"
       inkscape:connector-curvature="0" />
    <path
       style="fill:none;fill-opacity:1;fill-rule:nonzero;stroke:none"
       d="m 313.27734,468.28125 c 6.4336,-0.35547 16.09375,-2.34375 18.30078,-4.12891 2.20313,-1.78906 2.20313,-3.39453 1.83594,-4.46875 -0.36719,-1.07422 -2.01953,-2.32422 -5.14453,-1.07422 -3.125,1.25391 -12.28906,2.66797 -15.04687,2.66797 l 0.0547,7.00391"
       id="path5497"
       inkscape:connector-curvature="0" />
    <path
       style="fill:none;stroke:#859a65;stroke-width:6.75;stroke-linecap:round;stroke-linejoin:round;stroke-miterlimit:4;stroke-opacity:1"
       d="m 3132.7734,3737.1875 c 64.336,3.5547 160.9375,23.4375 183.0079,41.2891 22.0312,17.8906 22.0312,33.9453 18.3593,44.6875 -3.6718,10.7422 -20.1953,23.2422 -51.4453,10.7422 -31.25,-12.5391 -122.8906,-26.6797 -150.4687,-26.6797 z m 0,0"
       transform="matrix(0.1,0,0,-0.1,0,842)"
       id="path5499"
       inkscape:connector-curvature="0" />
    <path
       style="fill:none;stroke:#859a65;stroke-width:6.75;stroke-linecap:round;stroke-linejoin:round;stroke-miterlimit:4;stroke-opacity:1"
       d="m 2896.7578,3685.5078 c -0.5859,-27.8906 -1.289,-51.5625 -1.8359,-68.3203 51.4062,-1.1719 154.5703,-1.9141 218.164,-0.3516 -0.5468,16.836 -1.25,40.7422 -1.8359,68.9063 -48.5156,-0.5078 -158.9453,-1.8359 -214.4922,-0.2344 z m 0,0"
       transform="matrix(0.1,0,0,-0.1,0,842)"
       id="path5501"
       inkscape:connector-curvature="0" />
    <path
       style="fill:none;fill-opacity:1;fill-rule:nonzero;stroke:none"
       d="m 287.67187,473.49219 c 0,0 -8.33593,-0.44141 -13.96875,-2.58594 -2.90625,-0.89453 -4.90625,-1.60938 -5.63281,1.07031 -0.70312,2.59766 0.91016,4.28906 2.90625,5.1836 3.41016,1.52734 13.26563,2.85937 16.53516,3.03906 l 0.16015,-6.70703"
       id="path5503"
       inkscape:connector-curvature="0" />
    <path
       style="fill:none;stroke:#859a65;stroke-width:6.75;stroke-linecap:round;stroke-linejoin:round;stroke-miterlimit:4;stroke-opacity:1"
       d="m 2876.7188,3685.0781 c 0,0 -83.3594,4.4141 -139.6875,25.8594 -29.0625,8.9453 -49.0625,16.0938 -56.3282,-10.7031 -7.0312,-25.9766 9.1016,-42.8906 29.0625,-51.836 34.1016,-15.2734 132.6563,-28.5937 165.3516,-30.3906 z m 0,0"
       transform="matrix(0.1,0,0,-0.1,0,842)"
       id="path5505"
       inkscape:connector-curvature="0" />
    <path
       style="fill:none;fill-opacity:1;fill-rule:nonzero;stroke:none"
       d="m 313.61328,480.26172 c 6.35938,-0.35547 15.61328,-2.20703 17.79297,-3.9961 2.17969,-1.78515 2.17969,-3.39453 1.81641,-4.46484 -0.36329,-1.07422 -1.9961,-2.32422 -5.08594,-1.07422 -3.08985,1.25 -12.0586,2.61328 -14.78125,2.61328 l 0.25781,6.92188"
       id="path5507"
       inkscape:connector-curvature="0" />
    <path
       style="fill:none;stroke:#859a65;stroke-width:6.75;stroke-linecap:round;stroke-linejoin:round;stroke-miterlimit:4;stroke-opacity:1"
       d="m 3136.1328,3617.3828 c 63.5938,3.5547 156.1328,22.0703 177.9297,39.961 21.7969,17.8515 21.7969,33.9453 18.1641,44.6484 -3.6328,10.7422 -19.961,23.2422 -50.8594,10.7422 -30.8984,-12.5 -120.5859,-26.1328 -147.8125,-26.1328 z m 0,0"
       transform="matrix(0.1,0,0,-0.1,0,842)"
       id="path5509"
       inkscape:connector-curvature="0" />
    <path
       style="fill:none;stroke:#859a65;stroke-width:9;stroke-linecap:butt;stroke-linejoin:miter;stroke-miterlimit:4;stroke-opacity:1"
       d="m 2855.6641,3542.5781 c 0,-7.9297 -6.4063,-14.375 -14.336,-14.375 -7.9297,0 -14.3359,6.4453 -14.3359,14.375 0,7.9297 6.4062,14.336 14.3359,14.336 7.9297,0 14.336,-6.4063 14.336,-14.336 z m 0,0"
       transform="matrix(0.1,0,0,-0.1,0,842)"
       id="path5511"
       inkscape:connector-curvature="0" />
    <path
       style="fill:none;stroke:#859a65;stroke-width:6.18421634;stroke-linecap:butt;stroke-linejoin:miter;stroke-miterlimit:4;stroke-opacity:1;stroke-dasharray:none"
       d="m 2958.5547,5104.7266 c 0,-7.9297 -6.4063,-14.375 -14.3359,-14.375 -7.9297,0 -14.375,6.4453 -14.375,14.375 0,7.9296 6.4453,14.3359 14.375,14.3359 7.9296,0 14.3359,-6.4063 14.3359,-14.3359 z m 117.2266,0 c 0,-7.9297 -6.4454,-14.375 -14.375,-14.375 -7.9297,0 -14.336,6.4453 -14.336,14.375 0,7.9296 6.4063,14.3359 14.336,14.3359 7.9296,0 14.375,-6.4063 14.375,-14.3359 z m -212.9297,78.9453 c 0,-6.6016 -5.3516,-11.9532 -11.9532,-11.9532 l -35.8593,0 c -6.6407,0 -11.9922,5.3516 -11.9922,11.9532 0,6.6015 5.3515,11.9531 11.9922,11.9531 l 35.8593,0 c 6.6016,0 11.9532,-5.3516 11.9532,-11.9531 z m 341.0547,0 c 0,-6.6016 -5.3516,-11.9532 -11.9922,-11.9532 l -35.8594,0 c -6.6016,0 -11.9531,5.3516 -11.9531,11.9532 0,6.6015 5.3515,11.9531 11.9531,11.9531 l 35.8594,0 c 6.6406,0 11.9922,-5.3516 11.9922,-11.9531 z m 0,0"
       transform="matrix(0.1,0,0,-0.1,0,842)"
       id="path5513"
       inkscape:connector-curvature="0" />
    <path
       style="fill:#859a65;fill-opacity:1;fill-rule:nonzero;stroke:none"
       d="m 281.26172,407.60156 c 0,0.79297 -0.64063,1.4336 -1.4336,1.4336 -0.79296,0 -1.4375,-0.64063 -1.4375,-1.4336 0,-0.79297 0.64454,-1.4375 1.4375,-1.4375 0.79297,0 1.4336,0.64453 1.4336,1.4375"
       id="path5515"
       inkscape:connector-curvature="0" />
    <path
       style="fill:#859a65;fill-opacity:1;fill-rule:nonzero;stroke:none"
       d="m 320.73437,408.08203 c 0,0.78906 -0.64062,1.43359 -1.43359,1.43359 -0.79297,0 -1.4375,-0.64453 -1.4375,-1.43359 0,-0.79687 0.64453,-1.4375 1.4375,-1.4375 0.79297,0 1.43359,0.64063 1.43359,1.4375"
       id="path5517"
       inkscape:connector-curvature="0" />
    <path
       style="fill:#859a65;fill-opacity:1;fill-rule:nonzero;stroke:none"
       d="m 297.64453,407.07031 2.10156,-2.26562 2.10157,2.26562 -4.20313,0"
       id="path5519"
       inkscape:connector-curvature="0" />
    <path
       style="fill:#859a65;fill-opacity:1;fill-rule:nonzero;stroke:none"
       d="m 285.03516,420.91406 -2.26563,-2.10156 2.26563,-2.10156 0,4.20312"
       id="path5521"
       inkscape:connector-curvature="0" />
    <path
       style="fill:#859a65;fill-opacity:1;fill-rule:nonzero;stroke:none"
       d="m 302.23828,430.66406 -2.10156,2.26563 -2.10547,-2.26563 4.20703,0"
       id="path5523"
       inkscape:connector-curvature="0" />
    <path
       style="fill:#859a65;fill-opacity:1;fill-rule:nonzero;stroke:none"
       d="m 314.81641,416.32031 2.26562,2.10156 -2.26562,2.10547 0,-4.20703"
       id="path5525"
       inkscape:connector-curvature="0" />
    <path
       style="fill:#859a65;fill-opacity:1;fill-rule:nonzero;stroke:none"
       d="m 273.16797,437.23437 0.83984,0.16016 -0.91015,4.72266 -0.94532,-0.1836 0.70313,-3.64453 -0.92578,0.4961 -0.35547,-0.70704 1.59375,-0.84375"
       id="path5527"
       inkscape:connector-curvature="0" />
    <path
       style="fill:#859a65;fill-opacity:1;fill-rule:nonzero;stroke:none"
       d="m 274.62891,442.19531 0.11718,-0.37109 1.46094,0.17187 -0.11719,0.3711 -1.46093,-0.17188"
       id="path5529"
       inkscape:connector-curvature="0" />
    <path
       style="fill:#859a65;fill-opacity:1;fill-rule:nonzero;stroke:none"
       d="m 277.61719,441.97266 0.48828,0.0937 -0.46875,0.78515 -0.40235,-0.0742 0.38282,-0.80468"
       id="path5531"
       inkscape:connector-curvature="0" />
    <path
       style="fill:#859a65;fill-opacity:1;fill-rule:nonzero;stroke:none"
       d="m 280.99609,442.65234 c -0.32031,0.32422 -0.73437,0.40625 -1.16797,0.32032 -0.58984,-0.11329 -1.15234,-0.64063 -0.99218,-1.45704 0.1289,-0.67187 0.78515,-1.11328 1.54297,-0.96875 0.54296,0.10547 1.08984,0.52344 0.95312,1.21485 -0.13281,0.6914 -0.80859,0.82031 -1.03125,0.77734 -0.0977,-0.0195 -0.16797,-0.0937 -0.14844,-0.21094 l -0.008,-0.004 c -0.10156,0.0781 -0.23828,0.13672 -0.375,0.11328 -0.28125,-0.0547 -0.48047,-0.33203 -0.41797,-0.66016 0.0859,-0.44922 0.46875,-0.7539 0.85156,-0.67968 0.16407,0.0312 0.28516,0.1289 0.35157,0.28906 l 0.0742,-0.15235 0.28125,0.0547 -0.34375,0.78516 c -0.0156,0.0351 -0.0391,0.0781 -0.043,0.10937 -0.008,0.0312 0.004,0.0547 0.0391,0.0625 0.17187,0.0312 0.41797,-0.10547 0.5,-0.52734 0.10547,-0.55078 -0.34375,-0.78516 -0.74219,-0.85938 -0.5664,-0.10937 -1.04297,0.24219 -1.13281,0.72657 -0.10156,0.52343 0.19141,0.97656 0.69922,1.07422 0.26562,0.0547 0.57422,0.0781 0.82422,-0.0625 z m -1.28125,-0.85937 c -0.0312,0.16015 0.0391,0.29687 0.19922,0.32812 0.21485,0.0391 0.41797,-0.15625 0.46094,-0.36718 0.0273,-0.16016 -0.0469,-0.28907 -0.19922,-0.32032 -0.22266,-0.043 -0.42187,0.15625 -0.46094,0.35938"
       id="path5533"
       inkscape:connector-curvature="0" />
    <path
       style="fill:#859a65;fill-opacity:1;fill-rule:nonzero;stroke:none"
       d="m 294.12891,444.27344 0,-0.80469 c 0.44921,-0.4375 2.08203,-1.80078 2.08203,-2.68359 0,-0.4375 -0.39453,-0.64454 -0.78516,-0.64454 -0.41016,0 -0.79297,0.17969 -1.10937,0.38672 l -0.0781,-0.80078 c 0.43359,-0.21875 0.9375,-0.34375 1.42578,-0.34375 0.91797,0 1.51172,0.46094 1.51172,1.40235 0,1.02343 -1.02734,1.95703 -1.8125,2.73046 l 1.96094,0 0,0.75782 -3.19531,0"
       id="path5535"
       inkscape:connector-curvature="0" />
    <path
       style="fill:#859a65;fill-opacity:1;fill-rule:nonzero;stroke:none"
       d="m 299.65234,440.66797 0.54688,0 0.94531,2.40234 -0.53516,0 -0.20703,-0.55078 -0.97656,0 -0.20703,0.55078 -0.5,0 z m 0.26563,0.48047 -0.004,0 -0.34765,0.99218 0.69921,0 -0.34765,-0.99218"
       id="path5537"
       inkscape:connector-curvature="0" />
    <path
       style="fill:#859a65;fill-opacity:1;fill-rule:nonzero;stroke:none"
       d="m 301.45312,440.66797 0.83985,0 c 0.30859,0 0.77344,0.0898 0.77344,0.61719 0,0.28515 -0.19141,0.48437 -0.47657,0.53515 l 0,0.008 c 0.32422,0.0312 0.55078,0.25 0.55078,0.54688 0,0.60547 -0.54296,0.69531 -0.84765,0.69531 l -0.83985,0 z m 0.48047,0.96875 0.19922,0 c 0.20313,0 0.45313,-0.043 0.45313,-0.29297 0,-0.27734 -0.24219,-0.29688 -0.46485,-0.29688 l -0.1875,0 z m 0,1.05469 0.22657,0 c 0.22656,0 0.49609,-0.0547 0.49609,-0.33204 0,-0.3164 -0.25391,-0.36328 -0.49609,-0.36328 l -0.22657,0 0,0.69532"
       id="path5539"
       inkscape:connector-curvature="0" />
    <path
       style="fill:#859a65;fill-opacity:1;fill-rule:nonzero;stroke:none"
       d="m 305.30859,443.03516 c -0.17578,0.043 -0.36718,0.0781 -0.54687,0.0781 -0.78125,0 -1.32031,-0.39062 -1.32031,-1.20312 0,-0.82422 0.5,-1.28516 1.32031,-1.28516 0.15625,0 0.36719,0.0312 0.54297,0.10156 l -0.0352,0.40625 c -0.18359,-0.10547 -0.34766,-0.1289 -0.51953,-0.1289 -0.49609,0 -0.80859,0.3789 -0.80859,0.87109 0,0.48828 0.30468,0.85937 0.82031,0.85937 0.1875,0 0.41015,-0.043 0.52344,-0.10156 l 0.0234,0.40235"
       id="path5541"
       inkscape:connector-curvature="0" />
    <path
       style="fill:#859a65;fill-opacity:1;fill-rule:nonzero;stroke:none"
       d="m 316.49219,443.28125 c 0.34765,0.0781 0.71484,0.10937 1.08984,0.0508 0.39453,-0.0625 0.96875,-0.35156 0.89453,-0.83203 -0.0898,-0.55859 -0.5625,-0.67188 -1.16797,-0.57813 l -0.46093,0.0742 -0.1211,-0.75 0.4375,-0.0664 c 0.64063,-0.10157 1.01953,-0.37891 0.95703,-0.79297 -0.0781,-0.47656 -0.48828,-0.56641 -0.91797,-0.4961 -0.375,0.0586 -0.72265,0.20313 -1.02734,0.41797 L 316,439.55859 c 0.35547,-0.21093 0.80078,-0.37109 1.28906,-0.44922 0.58594,-0.0937 1.59766,-0.0469 1.75781,0.96875 0.10157,0.64844 -0.25,1.01563 -0.70312,1.27735 l 0,0.0117 c 0.62109,-0.0117 0.99219,0.41015 1.08594,0.98828 0.17578,1.1289 -0.80469,1.57812 -1.59375,1.70312 -0.41407,0.0664 -0.89844,0.0859 -1.26953,0.0391 l -0.0742,-0.81641"
       id="path5543"
       inkscape:connector-curvature="0" />
    <path
       style="fill:#859a65;fill-opacity:1;fill-rule:nonzero;stroke:none"
       d="m 322.58594,439.39062 0.64453,-0.125 c 0.72265,-0.14062 1.41015,-0.0195 1.58984,0.92188 0.17969,0.93359 -0.41406,1.30078 -1.13672,1.4375 l -0.64843,0.125 z m 0.85156,1.89844 0.26562,-0.0508 c 0.39454,-0.0781 0.72266,-0.44531 0.625,-0.95703 -0.10156,-0.51563 -0.53906,-0.73828 -0.93359,-0.66406 l -0.26562,0.0547 0.30859,1.61719"
       id="path5545"
       inkscape:connector-curvature="0" />
    <path
       style="fill:#859a65;fill-opacity:1;fill-rule:nonzero;stroke:none"
       d="m 325.02734,438.92187 1.39453,-0.26953 0.0703,0.375 -0.92188,0.17578 0.11328,0.58204 0.84375,-0.16016 0.0703,0.37109 -0.84375,0.16016 0.1289,0.66406 0.92578,-0.17578 0.0703,0.37109 -1.39844,0.26563 -0.45313,-2.35938"
       id="path5547"
       inkscape:connector-curvature="0" />
    <path
       style="fill:#859a65;fill-opacity:1;fill-rule:nonzero;stroke:none"
       d="m 326.90625,438.5625 1.31641,-0.25391 0.0703,0.375 -0.83985,0.16016 0.11329,0.58203 0.79687,-0.15234 0.0703,0.37109 -0.79687,0.15234 0.19922,1.03516 -0.47657,0.0898 -0.45312,-2.35937"
       id="path5549"
       inkscape:connector-curvature="0" />
    <path
       style="fill:#859a65;fill-opacity:1;fill-rule:nonzero;stroke:none"
       d="m 271.07422,451.63281 2.25,-2.71484 1.18359,0.1875 -0.48437,3.05469 0.60937,0.0976 -0.11328,0.70703 -0.60547,-0.0976 -0.15625,0.98828 -0.91406,-0.14453 0.15625,-0.98438 -2.04688,-0.32812 z m 2.03906,0.38672 0.32813,-2.0625 -0.0156,-0.004 -1.50391,1.875 1.19141,0.19141"
       id="path5551"
       inkscape:connector-curvature="0" />
    <path
       style="fill:#859a65;fill-opacity:1;fill-rule:nonzero;stroke:none"
       d="m 279.72656,451.93359 c -0.16797,-0.11328 -0.40234,-0.1914 -0.58984,-0.22265 -0.5586,-0.0899 -0.92188,0.23828 -1,0.72265 -0.0742,0.48438 0.16797,0.89453 0.67187,0.97657 0.12891,0.0195 0.23438,0.0234 0.32032,0.0156 l 0.0976,-0.62109 -0.5039,-0.0781 0.0586,-0.375 0.96094,0.15235 -0.20313,1.28125 c -0.26172,0.0273 -0.53125,0.0391 -0.78906,0 -0.76953,-0.1211 -1.24219,-0.58985 -1.11328,-1.39454 0.1289,-0.8125 0.69922,-1.1914 1.5039,-1.0625 0.27344,0.043 0.48829,0.11719 0.67969,0.21094 l -0.0937,0.39453"
       id="path5553"
       inkscape:connector-curvature="0" />
    <path
       style="fill:#859a65;fill-opacity:1;fill-rule:nonzero;stroke:none"
       d="m 280.40234,451.57031 0.47657,0.0742 -0.15235,0.96094 0.95313,0.14844 0.15234,-0.95704 0.47656,0.0742 -0.375,2.375 -0.48047,-0.0742 0.16797,-1.04296 -0.95312,-0.14844 -0.16406,1.03906 -0.47657,-0.0742 0.375,-2.375"
       id="path5555"
       inkscape:connector-curvature="0" />
    <path
       style="fill:#859a65;fill-opacity:1;fill-rule:nonzero;stroke:none"
       d="m 282.81641,451.95312 0.48046,0.0742 -0.3789,2.375 -0.47656,-0.0742 0.375,-2.375"
       id="path5557"
       inkscape:connector-curvature="0" />
    <path
       style="fill:#859a65;fill-opacity:1;fill-rule:nonzero;stroke:none"
       d="m 297.10937,452 -1.85546,0 -0.0195,1.02344 c 0.10938,-0.0195 0.25391,-0.0469 0.44141,-0.0469 0.67578,0 1.55078,0.31641 1.55078,1.5625 0,0.90235 -0.63281,1.63281 -1.875,1.63281 -0.37109,0 -0.80469,-0.0625 -1.12109,-0.13671 l 0.0195,-0.85938 c 0.23437,0.0937 0.5625,0.23828 0.98437,0.23828 0.50391,0 1.02735,-0.23437 1.02735,-0.84765 0,-0.61719 -0.55078,-0.83204 -1.10547,-0.83204 -0.29297,0 -0.57813,0.043 -0.85938,0.13282 l 0.0508,-2.58594 2.76171,0 0,0.71875"
       id="path5559"
       inkscape:connector-curvature="0" />
    <path
       style="fill:#859a65;fill-opacity:1;fill-rule:nonzero;stroke:none"
       d="m 301.39062,454.67969 c 0.0664,0.0234 0.13672,0.043 0.23047,0.043 0.31641,0 0.31641,-0.25 0.31641,-0.42579 l 0,-1.60156 0.48047,0 0,1.83203 c 0,0.25782 -0.16406,0.61328 -0.65625,0.61328 -0.13281,0 -0.23438,-0.008 -0.3711,-0.043 l 0,-0.41797"
       id="path5561"
       inkscape:connector-curvature="0" />
    <path
       style="fill:#859a65;fill-opacity:1;fill-rule:nonzero;stroke:none"
       d="m 302.93359,452.69531 0.48438,0 0,1.03516 0.86719,-1.03516 0.59375,0 -0.98829,1.13281 1.02735,1.27344 -0.62891,0 -0.86328,-1.11719 -0.008,0 0,1.11719 -0.48438,0 0,-2.40625"
       id="path5563"
       inkscape:connector-curvature="0" />
    <path
       style="fill:#859a65;fill-opacity:1;fill-rule:nonzero;stroke:none"
       d="m 305.23047,452.69531 0.48437,0 0,2.02735 0.9336,0 0,0.3789 -1.41797,0 0,-2.40625"
       id="path5565"
       inkscape:connector-curvature="0" />
    <path
       style="fill:#859a65;fill-opacity:1;fill-rule:nonzero;stroke:none"
       d="m 318.78516,451.35937 c -0.26954,-0.0703 -0.53907,-0.10937 -0.85938,-0.0586 -0.82422,0.12891 -0.98047,0.9375 -0.89844,1.64844 l 0.0156,0.0117 c 0.17578,-0.36328 0.44531,-0.5586 0.84375,-0.625 0.89844,-0.14063 1.48047,0.35547 1.61719,1.23047 0.16406,1.02734 -0.23047,1.78906 -1.3086,1.96093 -1.3164,0.20703 -1.78515,-0.83984 -1.96094,-1.95703 -0.20312,-1.28906 -0.0117,-2.76953 1.52735,-3.01172 0.34375,-0.0547 0.67969,-0.0508 1.02344,0.0117 z m -1.4961,2.71875 c 0.0742,0.44922 0.32422,0.81641 0.79688,0.73829 0.4414,-0.0703 0.55859,-0.52735 0.48828,-0.94922 -0.0703,-0.46094 -0.33203,-0.85938 -0.78516,-0.78907 -0.46484,0.0742 -0.57422,0.52344 -0.5,1"
       id="path5567"
       inkscape:connector-curvature="0" />
    <path
       style="fill:#859a65;fill-opacity:1;fill-rule:nonzero;stroke:none"
       d="m 321.47266,450.88672 0.7539,-0.15625 0.9336,1.66406 0.008,0 0.1875,-1.90234 0.7539,-0.16016 0.4961,2.35547 -0.45313,0.0937 -0.41015,-1.94141 -0.004,0 -0.22656,2.07422 -0.44922,0.0977 -1.04297,-1.8086 -0.008,0.008 0.41015,1.93359 -0.45312,0.0977 -0.49609,-2.35547"
       id="path5569"
       inkscape:connector-curvature="0" />
    <path
       style="fill:#859a65;fill-opacity:1;fill-rule:nonzero;stroke:none"
       d="m 324.63281,450.22266 0.57813,-0.1211 1.26562,1.57031 0.008,-0.004 -0.37109,-1.75781 0.45313,-0.0937 0.49609,2.35156 -0.57813,0.12109 -1.26953,-1.57031 -0.008,0 0.37109,1.76172 -0.44921,0.0937 -0.4961,-2.35156"
       id="path5571"
       inkscape:connector-curvature="0" />
    <path
       style="fill:#859a65;fill-opacity:1;fill-rule:nonzero;stroke:none"
       d="m 328.11719,449.44531 c 0.73828,-0.15625 1.25781,0.25391 1.41015,0.96485 0.14844,0.71093 -0.15234,1.3125 -0.89453,1.46875 -0.75781,0.15625 -1.26172,-0.26172 -1.41406,-0.98047 -0.15234,-0.72266 0.15234,-1.29688 0.89844,-1.45313 z m 0.43359,2.0625 c 0.48438,-0.10156 0.57031,-0.5664 0.48438,-0.99219 -0.0899,-0.41406 -0.3711,-0.79687 -0.83985,-0.69921 -0.46875,0.0976 -0.57031,0.5625 -0.48047,0.97656 0.0859,0.42578 0.35547,0.8164 0.83594,0.71484"
       id="path5573"
       inkscape:connector-curvature="0" />
    <path
       style="fill:#859a65;fill-opacity:1;fill-rule:nonzero;stroke:none"
       d="m 271.46484,460.0625 3.0625,0.48437 -0.125,0.78907 -2.3125,3.69531 -1.03515,-0.16406 2.39453,-3.72266 -2.10156,-0.33594 0.11718,-0.74609"
       id="path5575"
       inkscape:connector-curvature="0" />
    <path
       style="fill:#859a65;fill-opacity:1;fill-rule:nonzero;stroke:none"
       d="m 276.66406,462.14453 0.60156,0.0937 c 0.51563,0.082 0.96875,0.30859 0.87891,0.875 -0.0898,0.55469 -0.52734,0.69141 -1.03516,0.61328 l -0.20312,-0.0351 -0.14063,0.90234 -0.47656,-0.0742 z m 0.30469,1.17188 0.16406,0.0273 c 0.23828,0.0391 0.46485,-0.004 0.50781,-0.28125 0.043,-0.27734 -0.14843,-0.40234 -0.39453,-0.44141 l -0.16406,-0.0273 -0.11328,0.72266"
       id="path5577"
       inkscape:connector-curvature="0" />
    <path
       style="fill:#859a65;fill-opacity:1;fill-rule:nonzero;stroke:none"
       d="m 279.72656,465.52344 -0.35156,-0.48047 c -0.0352,0 -0.0703,-0.004 -0.11328,-0.0117 -0.76172,-0.12109 -1.08203,-0.69141 -0.96875,-1.41797 0.11719,-0.72656 0.60156,-1.16016 1.35937,-1.03906 0.74219,0.11719 1.08203,0.6875 0.96875,1.40625 -0.082,0.51172 -0.35156,0.89062 -0.77343,1.01562 l 0.45312,0.61719 z m -0.40625,-0.86719 c 0.48828,0.0781 0.73828,-0.32422 0.80469,-0.75391 0.0664,-0.41797 -0.0586,-0.8789 -0.53516,-0.95312 -0.47265,-0.0742 -0.73437,0.32422 -0.80078,0.74219 -0.0664,0.42968 0.0469,0.89062 0.53125,0.96484"
       id="path5579"
       inkscape:connector-curvature="0" />
    <path
       style="fill:#859a65;fill-opacity:1;fill-rule:nonzero;stroke:none"
       d="m 281.20312,462.86328 0.51563,0.082 c 0.50781,0.082 1.12109,0.16016 1.01562,0.82031 -0.043,0.27735 -0.26953,0.48047 -0.57812,0.47266 l 0,0.008 c 0.12891,0.0312 0.18359,0.17188 0.21094,0.28125 l 0.23437,0.99219 -0.53125,-0.0859 -0.16797,-0.78515 c -0.0391,-0.1875 -0.0898,-0.26563 -0.28906,-0.29688 l -0.15234,-0.0234 -0.15625,0.98438 -0.47657,-0.0742 z m 0.31641,1.08984 0.15625,0.0234 c 0.23438,0.0391 0.50781,0.0469 0.55469,-0.25 0.0469,-0.28515 -0.21485,-0.35156 -0.45313,-0.39062 l -0.15625,-0.0234 -0.10156,0.64062"
       id="path5581"
       inkscape:connector-curvature="0" />
    <path
       style="fill:#859a65;fill-opacity:1;fill-rule:nonzero;stroke:none"
       d="m 284.53125,463.83594 c -0.14063,-0.0859 -0.30078,-0.15235 -0.46875,-0.17969 -0.16406,-0.0234 -0.38672,0.0156 -0.42578,0.27344 -0.0664,0.41015 1.0039,0.40234 0.875,1.19922 -0.082,0.51953 -0.52344,0.65234 -1.00391,0.57421 -0.25781,-0.0391 -0.36719,-0.0937 -0.59375,-0.1875 l 0.10938,-0.42187 c 0.15234,0.11719 0.33203,0.20312 0.51562,0.23047 0.1836,0.0312 0.4375,-0.0234 0.47266,-0.23828 0.0703,-0.45313 -1,-0.42969 -0.875,-1.21485 0.0859,-0.53125 0.52734,-0.66015 0.94531,-0.59375 0.20313,0.0312 0.39063,0.0899 0.55469,0.17578 l -0.10547,0.38282"
       id="path5583"
       inkscape:connector-curvature="0" />
    <path
       style="fill:#859a65;fill-opacity:1;fill-rule:nonzero;stroke:none"
       d="m 294.93359,464.74219 c -0.48047,-0.21485 -0.79687,-0.61328 -0.79687,-1.11719 0,-0.85938 0.65234,-1.26563 1.52734,-1.26563 0.84766,0 1.61328,0.35157 1.61328,1.15625 0,0.4336 -0.26953,0.9375 -0.80078,1.15235 l 0,0.004 c 0.63672,0.29688 0.92578,0.71094 0.92578,1.26172 0,0.97266 -0.70312,1.39844 -1.65625,1.39844 -0.9375,0 -1.6914,-0.40625 -1.6914,-1.38281 0,-0.53906 0.30078,-0.91016 0.8789,-1.19141 z m 0.8125,1.875 c 0.38672,0 0.69141,-0.24219 0.69141,-0.64063 0,-0.47656 -0.40625,-0.70312 -0.80859,-0.83594 -0.34375,0.16797 -0.61329,0.38672 -0.61329,0.79297 0,0.40235 0.34766,0.6836 0.73047,0.6836 z m 0.0703,-2.23828 c 0.26953,-0.0977 0.53906,-0.40235 0.53906,-0.69532 0,-0.35937 -0.23047,-0.60937 -0.59375,-0.60937 -0.35156,0 -0.70313,0.19531 -0.70313,0.57812 0,0.41407 0.42578,0.60157 0.75782,0.72657"
       id="path5585"
       inkscape:connector-curvature="0" />
    <path
       style="fill:#859a65;fill-opacity:1;fill-rule:nonzero;stroke:none"
       d="m 299.625,464.58984 -0.69141,0 0,-0.3789 1.86328,0 0,0.3789 -0.6914,0 0,2.02344 -0.48047,0 0,-2.02344"
       id="path5587"
       inkscape:connector-curvature="0" />
    <path
       style="fill:#859a65;fill-opacity:1;fill-rule:nonzero;stroke:none"
       d="m 301.08594,464.21094 0.48047,0 0,1.38672 c 0,0.41015 0.13281,0.67968 0.5,0.67968 0.37109,0 0.5,-0.26953 0.5,-0.67968 l 0,-1.38672 0.48046,0 0,1.53515 c 0,0.64453 -0.36328,0.91016 -0.98046,0.91016 -0.61719,0 -0.98047,-0.26563 -0.98047,-0.91016 l 0,-1.53515"
       id="path5589"
       inkscape:connector-curvature="0" />
    <path
       style="fill:#859a65;fill-opacity:1;fill-rule:nonzero;stroke:none"
       d="m 303.34375,464.21094 0.51562,0 0.61719,1.88672 0.008,0 0.60938,-1.88672 0.48047,0 -0.8086,2.40234 -0.59375,0 -0.82812,-2.40234"
       id="path5591"
       inkscape:connector-curvature="0" />
    <path
       style="fill:#859a65;fill-opacity:1;fill-rule:nonzero;stroke:none"
       d="m 317.03125,466.01562 c 0.26953,0.0703 0.53906,0.10938 0.86328,0.0586 0.82031,-0.12891 0.98047,-0.9375 0.89453,-1.64844 l -0.0156,-0.0117 c -0.17188,0.3711 -0.44141,0.5586 -0.84375,0.6211 -0.89844,0.14453 -1.47657,-0.35157 -1.61719,-1.22657 -0.16406,-1.03125 0.23437,-1.78906 1.30859,-1.96093 1.32032,-0.20704 1.78516,0.83984 1.96485,1.95703 0.20312,1.28515 0.0117,2.76562 -1.52735,3.01172 -0.34765,0.0547 -0.68359,0.0508 -1.02734,-0.0117 z m 1.49609,-2.71875 c -0.0742,-0.44921 -0.32422,-0.8164 -0.79297,-0.73828 -0.44531,0.0703 -0.55859,0.52735 -0.49218,0.94922 0.0742,0.46094 0.33203,0.85938 0.78515,0.78906 0.46485,-0.0742 0.57422,-0.52343 0.5,-1"
       id="path5593"
       inkscape:connector-curvature="0" />
    <path
       style="fill:#859a65;fill-opacity:1;fill-rule:nonzero;stroke:none"
       d="m 321.23437,462.29297 0.49219,-0.11328 0.8711,1.77343 0.004,-0.004 -0.0312,-1.96485 0.64063,-0.14453 0.83984,1.77735 0.008,-0.004 0.008,-1.97266 0.45703,-0.10546 -0.0703,2.48437 -0.60546,0.14063 -0.85157,-1.77735 -0.008,0 0.0156,1.96875 -0.60938,0.14063 -1.16016,-2.19922"
       id="path5595"
       inkscape:connector-curvature="0" />
    <path
       style="fill:#859a65;fill-opacity:1;fill-rule:nonzero;stroke:none"
       d="m 325.62109,462.46875 -0.96093,-0.96484 0.54687,-0.125 0.68359,0.72265 0.30469,-0.95312 0.50391,-0.11328 -0.44531,1.28515 1.05078,1.04297 -0.55469,0.125 -0.75391,-0.78906 -0.33593,1.03906 -0.52735,0.125 0.48828,-1.39453"
       id="path5597"
       inkscape:connector-curvature="0" />
    <path
       style="fill:#859a65;fill-opacity:1;fill-rule:nonzero;stroke:none"
       d="m 328.01562,462.22266 -1.17968,-1.21875 0.55078,-0.12891 0.77734,0.85937 0.33985,-1.11718 0.49609,-0.11328 -0.51172,1.61328 0.21094,0.92187 -0.46875,0.10938 -0.21485,-0.92578"
       id="path5599"
       inkscape:connector-curvature="0" />
    <path
       style="fill:#859a65;fill-opacity:1;fill-rule:nonzero;stroke:none"
       d="m 329.60937,462.42969 0.73438,-1.84375 -1.05859,0.24218 -0.082,-0.36718 1.55469,-0.35938 0.0899,0.38281 -0.7461,1.84375 1.13281,-0.25781 0.0859,0.36719 -1.625,0.375 -0.0859,-0.38281"
       id="path5601"
       inkscape:connector-curvature="0" />
    <path
       style="fill:#859a65;fill-opacity:1;fill-rule:nonzero;stroke:none"
       d="m 294.05469,476.875 c 0,-1.20313 0.36328,-2.5 1.66406,-2.5 1.40625,0 1.68359,1.38672 1.68359,2.5 0,1.11719 -0.29297,2.47656 -1.68359,2.47656 -1.48047,0 -1.66406,-1.46875 -1.66406,-2.47656 z m 2.38281,0 c 0,-0.61719 0,-1.78125 -0.71875,-1.78125 -0.70313,0 -0.70313,1.16406 -0.70313,1.78125 0,0.60937 -0.004,1.75781 0.70313,1.75781 0.72266,0 0.71875,-1.14844 0.71875,-1.75781"
       id="path5603"
       inkscape:connector-curvature="0" />
    <path
       style="fill:#859a65;fill-opacity:1;fill-rule:nonzero;stroke:none"
       d="m 320.21484,477.22266 -0.63281,0 -0.19922,1.41015 -0.60937,0 0.19922,-1.41015 -0.70313,0 -0.20312,1.41015 -0.60938,0 0.19922,-1.41015 -0.61719,0 0,-0.55079 0.69531,0 0.11719,-0.88281 -0.60547,0 0,-0.55078 0.6875,0 0.19141,-1.41406 0.61328,0 -0.19141,1.41406 0.70313,0 0.19141,-1.41406 0.60937,0 -0.19531,1.41406 0.55859,0 0,0.55078 -0.64062,0 -0.11719,0.88281 0.55859,0 z m -1.75,-1.4336 -0.11718,0.88281 0.70312,0 0.11719,-0.88281 -0.70313,0"
       id="path5605"
       inkscape:connector-curvature="0" />
    <path
       style="fill:#859a65;fill-opacity:1;fill-rule:nonzero;stroke:none"
       d="m 274.09375,476.46484 -0.62109,0.23438 -1.48047,-3.96094 0.61718,-0.23047 1.48438,3.95703"
       id="path5607"
       inkscape:connector-curvature="0" />
    <path
       style="fill:#859a65;fill-opacity:1;fill-rule:nonzero;stroke:none"
       d="m 274.25391,472.83984 0.48046,0.45313 -2.90625,3.07031 -0.48046,-0.45312 2.90625,-3.07032"
       id="path5609"
       inkscape:connector-curvature="0" />
    <path
       style="fill:#859a65;fill-opacity:1;fill-rule:nonzero;stroke:none"
       d="m 275.1249,474.61328 -0.10547,0.65234 -4.17578,-0.67187 0.10547,-0.65234 4.17578,0.67187"
       id="path5611"
       inkscape:connector-curvature="0" />
    <path
       style="fill:#859a65;fill-opacity:1;fill-rule:nonzero;stroke:none"
       d="m 302.77734,479.09766 0.66016,0 0,-3.83594 -0.66016,0 z m 0,0"
       id="path5613"
       inkscape:connector-curvature="0" />
    <path
       style="fill:#859a65;fill-opacity:1;fill-rule:nonzero;stroke:none"
       d="m 301.19141,477.51172 3.83203,0 0,-0.66406 -3.83203,0 z m 0,0"
       id="path5615"
       inkscape:connector-curvature="0" />
    <path
       style="fill:#859a65;fill-opacity:1;fill-rule:nonzero;stroke:none"
       d="M 326.64258 547.3125 L 326.64258 555.35938 L 335.00586 555.35938 L 335.00586 547.3125 L 326.64258 547.3125 z M 330.97656 548.55078 C 331.83562 548.55078 332.5293 549.24538 332.5293 550.0918 C 332.5293 550.70507 332.17309 551.22936 331.6582 551.48242 L 331.6582 554.36133 L 330.36914 554.36133 L 330.36914 551.51758 C 329.82227 551.27917 329.43555 550.73196 329.43555 550.0918 C 329.43555 549.24538 330.13015 548.55078 330.97656 548.55078 z "
       transform="matrix(0.30921082,0,0,0.30921082,226.51014,304.06569)"
       id="path5617" />
    <path
       style="fill:none;stroke:#859a65;stroke-width:4.5;stroke-linecap:butt;stroke-linejoin:miter;stroke-miterlimit:4;stroke-opacity:1"
       d="m 3277.404,3685.625 c 0,0 -1.2712,14.4922 10.3304,14.4922 11.6015,0 11.0169,-14.4922 11.0169,-14.4922"
       transform="matrix(0.1,0,0,-0.1,0,842)"
       id="path5623"
       inkscape:connector-curvature="0"
       sodipodi:nodetypes="csc" />
    <path
       style="fill:none;fill-opacity:1;fill-rule:nonzero;stroke:none"
       d="m 300.26172,316.35547 c -3.71875,0 -6.73047,3.01172 -6.73047,6.73047 0,3.71484 3.01172,6.72656 6.73047,6.72656 3.71484,0 6.72656,-3.01172 6.72656,-6.72656 0,-3.71875 -3.01172,-6.73047 -6.72656,-6.73047"
       id="path5625"
       inkscape:connector-curvature="0" />
    <path
       style="fill:none;stroke:#859a65;stroke-width:15.46054085;stroke-linecap:butt;stroke-linejoin:miter;stroke-miterlimit:4;stroke-opacity:1;stroke-dasharray:none"
       d="m 3002.6172,5256.4453 c -37.1875,0 -67.3047,-30.1172 -67.3047,-67.3047 0,-37.1484 30.1172,-67.2656 67.3047,-67.2656 37.1484,0 67.2656,30.1172 67.2656,67.2656 0,37.1875 -30.1172,67.3047 -67.2656,67.3047 z m 0,0"
       transform="matrix(0.1,0,0,-0.1,0,842)"
       id="path5627"
       inkscape:connector-curvature="0" />
    <path
       style="fill:#859a65;fill-opacity:1;fill-rule:nonzero;stroke:none"
       d="m 300.25781,324.38281 -0.0156,-0.0156 -1.9336,-6.41797 -2.5039,8.21875 0.46875,0 c 0,0 0.3164,-1.42969 0.82812,-2.28125 0.28125,-0.46485 0.71094,-0.84375 1.28906,-0.83203 0.40625,0.004 0.75782,0.22656 1.19532,0.83984 0.26562,0.37109 0.67187,1.30859 0.67187,1.30859 0,0 0.40625,-0.93359 0.67188,-1.30859 0.4375,-0.61328 0.78906,-0.83594 1.19531,-0.83984 0.57812,-0.0117 1.00781,0.36718 1.28906,0.83203 0.51172,0.85156 0.82813,2.28125 0.82813,2.28125 l 0.47265,0 -2.50781,-8.21875 -1.93359,6.41797 -0.0156,0.0156"
       id="path5629"
       inkscape:connector-curvature="0" />
    <path
       style="fill:#859a65;fill-opacity:1;fill-rule:nonzero;stroke:none"
       d="m 297.53516,417.23047 4.5664,0 0,-1.55469 -4.5664,0 z m 0,0"
       id="path5631"
       inkscape:connector-curvature="0" />
    <path
       style="fill:#859a65;fill-opacity:1;fill-rule:nonzero;stroke:none"
       d="m 298.21484,418.5625 3.25,0 0,-0.68359 -3.25,0 z m 0,0"
       id="path5633"
       inkscape:connector-curvature="0" />
    <path
       style="fill:#859a65;fill-opacity:1;fill-rule:nonzero;stroke:none"
       d="m 298.21484,420.16016 3.25,0 0,-0.67969 -3.25,0 z m 0,0"
       id="path5635"
       inkscape:connector-curvature="0" />
    <path
       style="fill:#859a65;fill-opacity:1;fill-rule:nonzero;stroke:none"
       d="m 298.21484,421.76172 3.25,0 0,-0.67969 -3.25,0 z m 0,0"
       id="path5637"
       inkscape:connector-curvature="0" />
    <path
       style="fill:none;fill-opacity:1;fill-rule:nonzero;stroke:none"
       d="m 264.70312,419.60937 c 0.85547,6.54688 4.44141,9.97266 4.44141,9.97266 0,0 12.16016,4.75 19.53906,3.99609 -1.61718,-2.1875 -2.875,-4.84765 -3.66406,-7.8164 -12.08203,-2.27344 -20.31641,-6.15235 -20.31641,-6.15235"
       id="path5639"
       inkscape:connector-curvature="0" />
    <path
       style="fill:none;stroke:#859a65;stroke-width:6.75;stroke-linecap:round;stroke-linejoin:miter;stroke-miterlimit:4;stroke-opacity:1"
       d="m 2647.0313,4223.9062 c 8.5546,-65.4687 44.414,-99.7265 44.414,-99.7265 0,0 121.6016,-47.5 195.3906,-39.9609 -16.1718,21.8749 -28.75,48.4765 -36.6406,78.164 -120.8203,22.7344 -203.164,61.5234 -203.164,61.5234 z m 0,0"
       id="path5641"
       inkscape:connector-curvature="0"
       transform="matrix(0.1,0,0,-0.1,0,842)" />
    <path
       style="fill:none;fill-opacity:1;fill-rule:nonzero;stroke:none"
       d="m 314.54297,425.66406 c -0.78906,3.02344 -2.07031,5.73438 -3.71485,7.95313 7.41016,0.53125 19.10157,-4.03516 19.10157,-4.03516 0,0 3.58203,-3.42578 4.4375,-9.97266 0,0 -8.01172,3.77344 -19.82422,6.05469"
       id="path5643"
       inkscape:connector-curvature="0" />
    <path
       style="fill:none;stroke:#859a65;stroke-width:6.75;stroke-linecap:round;stroke-linejoin:miter;stroke-miterlimit:4;stroke-opacity:1"
       d="m 3145.4297,4163.3594 c -7.8906,-30.2344 -20.7031,-57.3438 -37.1484,-79.5313 74.1015,-5.3125 191.0156,40.3516 191.0156,40.3516 0,0 35.8203,34.2578 44.375,99.7265 0,0 -80.1172,-37.7343 -198.2422,-60.5468 z m 0,0"
       transform="matrix(0.1,0,0,-0.1,0,842)"
       id="path5645"
       inkscape:connector-curvature="0" />
    <path
       style="fill:#859a65;fill-opacity:1;fill-rule:nonzero;stroke:none"
       d="m 321.34766,427.97266 c 0,0.59765 0.1289,2.07812 0.69921,2.48437 0.15235,0.10938 0.35547,0.12891 0.48047,0.12891 0.41016,0 0.81641,-0.32032 0.8086,-0.78907 -0.008,-0.4375 -0.36328,-0.83593 -0.84375,-0.80078 l -0.10938,-1.01562 c 0,-0.27344 0.0469,-0.80078 0.0899,-0.9336 0.53906,0.0625 0.86328,-0.39453 0.86328,-0.78906 0,-0.42187 -0.35547,-0.80078 -0.8086,-0.80078 -1.125,0 -1.17968,1.94141 -1.17968,2.51563"
       id="path5647"
       inkscape:connector-curvature="0" />
    <path
       style="fill:#859a65;fill-opacity:1;fill-rule:nonzero;stroke:none"
       d="m 323.36328,428.85156 0.23438,0.1875 c 0,0 0.89843,-0.92187 0.0117,-1.92187 l -0.24609,0.1914 c 0,0 0.69141,0.6875 0,1.54297"
       id="path5649"
       inkscape:connector-curvature="0" />
    <path
       style="fill:#859a65;fill-opacity:1;fill-rule:nonzero;stroke:none"
       d="m 323.80078,429.21484 0.24219,0.22657 c 0,0 1.21875,-1.29688 0.0469,-2.66016 l -0.24609,0.20703 c 0,0 1.00781,0.91797 -0.043,2.22656"
       id="path5651"
       inkscape:connector-curvature="0" />
    <path
       style="fill:#859a65;fill-opacity:1;fill-rule:nonzero;stroke:none"
       d="m 276.08984,425.36719 c -0.51562,0 -1.76953,0.10937 -2.12109,0.59765 -0.0937,0.13672 -0.10938,0.30078 -0.10938,0.41016 0,0.34375 0.26954,0.69922 0.67188,0.69141 0.37109,-0.0117 0.71484,-0.3125 0.67969,-0.71875 l 0.87109,-0.10157 c 0.22656,0 0.67969,0.0469 0.80078,0.082 -0.0547,0.45704 0.32422,0.73829 0.66797,0.73829 0.35547,0 0.68359,-0.30079 0.68359,-0.69141 0,-0.96484 -1.66015,-1.00781 -2.14453,-1.00781"
       id="path5653"
       inkscape:connector-curvature="0" />
    <path
       style="fill:#859a65;fill-opacity:1;fill-rule:nonzero;stroke:none"
       d="m 275.86328,429.59766 0.50781,0 0,-1.31641 -0.50781,0 z m 0,0"
       id="path5659"
       inkscape:connector-curvature="0" />
    <path
       style="fill:none;fill-opacity:1;fill-rule:nonzero;stroke:none"
       d="m 283.75391,477.9375 -3.79297,-0.61719 0.39843,-2.44531 3.79297,0.61328 -0.39843,2.44922"
       id="path5661"
       inkscape:connector-curvature="0" />
    <path
       style="fill:none;stroke:#859a65;stroke-width:4.5;stroke-linecap:round;stroke-linejoin:miter;stroke-miterlimit:4;stroke-opacity:1"
       d="m 2837.5391,3640.625 -37.9297,6.1719 3.9844,24.4531 37.9296,-6.1328 z m 0,0"
       transform="matrix(0.1,0,0,-0.1,0,842)"
       id="path5663"
       inkscape:connector-curvature="0" />
    <path
       style="fill:none;stroke:#859a65;stroke-width:4.5;stroke-linecap:butt;stroke-linejoin:miter;stroke-miterlimit:4;stroke-opacity:1"
       d="m 2804.9609,3670.0781 15.586,-14.1406 19.1406,7.5781"
       transform="matrix(0.1,0,0,-0.1,0,842)"
       id="path5665"
       inkscape:connector-curvature="0" />
  </g>
  <g
     inkscape:groupmode="layer"
     id="layer2"
     inkscape:label="Layer 2"
     style="display:inline">
    <circle
       style="fill:none;fill-rule:evenodd;stroke:#859a65;stroke-width:1.26926756px;stroke-linecap:butt;stroke-linejoin:miter;stroke-opacity:1;fill-opacity:1"
       id="path5112"
       cx="442.93604"
       cy="831.17175"
       r="5.8441095" />
  </g>
</svg>
